<svg width="25" height="25" viewBox="0 0 32 32" fill="none" xmlns="http://www.w3.org/2000/svg">
<path d="M16 0C24.8367 0 32 7.34418 32 16.4039C32 23.6873 27.368 29.8586 20.9607 32C20.9627 31.9938 20.9653 31.985 20.9653 31.985C20.9653 31.985 19.8853 31.4662 19.908 30.54C19.9333 29.521 19.908 27.1424 19.908 26.2696C19.908 24.7706 18.9827 23.7085 18.9827 23.7085C18.9827 23.7085 26.2387 23.7919 26.2387 15.8544C26.2387 12.7917 24.6773 11.1984 24.6773 11.1984C24.6773 11.1984 25.4973 7.92857 24.3933 6.54244C23.156 6.40574 20.94 7.75497 19.9933 8.38583C19.9933 8.38583 18.4933 7.75565 15.9993 7.75565C13.5047 7.75565 12.0053 8.38583 12.0053 8.38583C11.0593 7.75565 8.84267 6.40574 7.60533 6.54244C6.50133 7.92926 7.32133 11.1984 7.32133 11.1984C7.32133 11.1984 5.76 12.7923 5.76 15.8544C5.76 23.7919 13.016 23.7085 13.016 23.7085C13.016 23.7085 12.2847 24.5553 12.1253 25.8007C11.6187 25.977 10.874 26.1944 10.272 26.1944C8.69733 26.1944 7.49933 24.6251 7.06067 23.8992C6.628 23.1829 5.74067 22.5821 4.91333 22.5821C4.36867 22.5821 4.10267 22.8616 4.10267 23.1808C4.10267 23.5 4.86667 23.7228 5.37067 24.3148C6.43333 25.5628 6.414 28.3699 10.2007 28.3699C10.612 28.3699 11.4513 28.2661 12.0827 28.1792C12.0787 29.063 12.078 29.9953 12.0913 30.54C12.114 31.4662 11.034 31.985 11.034 31.985C11.034 31.985 11.0367 31.9938 11.0387 32C4.632 29.8586 0 23.6873 0 16.4039C0 7.34418 7.16333 0 16 0Z" fill="white"/>
</svg>
